<mxfile host="app.diagrams.net" agent="Mozilla/5.0 (Windows NT 10.0; Win64; x64) AppleWebKit/537.36 (KHTML, like Gecko) Chrome/131.0.0.0 Safari/537.36 Edg/131.0.0.0" version="24.8.6">
  <diagram name="Page-1" id="wzXBaks2tttUDE-rddll">
    <mxGraphModel dx="1568" dy="1935" grid="1" gridSize="10" guides="1" tooltips="1" connect="1" arrows="1" fold="1" page="1" pageScale="1" pageWidth="850" pageHeight="1100" math="0" shadow="0">
      <root>
        <mxCell id="0" />
        <mxCell id="1" parent="0" />
        <mxCell id="lVM0PGsEVYaV1nGACYPw-10" value="" style="edgeStyle=orthogonalEdgeStyle;rounded=0;orthogonalLoop=1;jettySize=auto;html=1;" parent="1" source="lVM0PGsEVYaV1nGACYPw-1" target="lVM0PGsEVYaV1nGACYPw-2" edge="1">
          <mxGeometry relative="1" as="geometry" />
        </mxCell>
        <mxCell id="lVM0PGsEVYaV1nGACYPw-1" value="Start" style="rounded=1;whiteSpace=wrap;html=1;" parent="1" vertex="1">
          <mxGeometry x="240" y="-970" width="120" height="60" as="geometry" />
        </mxCell>
        <mxCell id="lVM0PGsEVYaV1nGACYPw-11" style="edgeStyle=orthogonalEdgeStyle;rounded=0;orthogonalLoop=1;jettySize=auto;html=1;entryX=0.5;entryY=0;entryDx=0;entryDy=0;" parent="1" source="lVM0PGsEVYaV1nGACYPw-2" target="lVM0PGsEVYaV1nGACYPw-3" edge="1">
          <mxGeometry relative="1" as="geometry" />
        </mxCell>
        <mxCell id="lVM0PGsEVYaV1nGACYPw-2" value="Vraag max_aantal_getallen aan de gebruiker (minimum 2)" style="shape=parallelogram;perimeter=parallelogramPerimeter;whiteSpace=wrap;html=1;fixedSize=1;" parent="1" vertex="1">
          <mxGeometry x="180" y="-830" width="240" height="60" as="geometry" />
        </mxCell>
        <mxCell id="lVM0PGsEVYaV1nGACYPw-6" style="edgeStyle=orthogonalEdgeStyle;rounded=0;orthogonalLoop=1;jettySize=auto;html=1;" parent="1" source="lVM0PGsEVYaV1nGACYPw-4" target="lVM0PGsEVYaV1nGACYPw-5" edge="1">
          <mxGeometry relative="1" as="geometry">
            <mxPoint x="630" y="-480" as="targetPoint" />
            <Array as="points">
              <mxPoint x="630" y="-440" />
            </Array>
          </mxGeometry>
        </mxCell>
        <mxCell id="lVM0PGsEVYaV1nGACYPw-15" value="" style="edgeStyle=orthogonalEdgeStyle;rounded=0;orthogonalLoop=1;jettySize=auto;html=1;" parent="1" source="lVM0PGsEVYaV1nGACYPw-4" target="lVM0PGsEVYaV1nGACYPw-12" edge="1">
          <mxGeometry relative="1" as="geometry" />
        </mxCell>
        <mxCell id="lVM0PGsEVYaV1nGACYPw-4" value="als het aantal_getallen &amp;lt; max_aantal_getallen" style="rhombus;whiteSpace=wrap;html=1;" parent="1" vertex="1">
          <mxGeometry x="180" y="-480" width="240" height="80" as="geometry" />
        </mxCell>
        <mxCell id="lVM0PGsEVYaV1nGACYPw-7" style="edgeStyle=orthogonalEdgeStyle;rounded=0;orthogonalLoop=1;jettySize=auto;html=1;" parent="1" source="lVM0PGsEVYaV1nGACYPw-3" target="lVM0PGsEVYaV1nGACYPw-4" edge="1">
          <mxGeometry relative="1" as="geometry">
            <Array as="points">
              <mxPoint x="300" y="-560" />
              <mxPoint x="300" y="-560" />
            </Array>
          </mxGeometry>
        </mxCell>
        <mxCell id="lVM0PGsEVYaV1nGACYPw-5" value="nieuw fibonacci getal = eerste getal + tweede getal&lt;div&gt;Schuif de getallen door:&lt;/div&gt;&lt;div&gt;eerste getal = vorig tweede getal&lt;/div&gt;&lt;div&gt;tweede getal = nieuw fibonacci getal&lt;/div&gt;&lt;div&gt;&lt;br&gt;&lt;/div&gt;&lt;div&gt;Verhoog het aantal_getallen met 1&lt;/div&gt;" style="rounded=0;whiteSpace=wrap;html=1;" parent="1" vertex="1">
          <mxGeometry x="491" y="-610" width="300" height="120" as="geometry" />
        </mxCell>
        <mxCell id="lVM0PGsEVYaV1nGACYPw-3" value="initialiseer de eerste twee getallen:&amp;nbsp;&lt;div&gt;eerste getal = 1&lt;/div&gt;&lt;div&gt;tweede getal = 1&lt;/div&gt;&lt;div&gt;intialiseer het aantal_getallen op&amp;nbsp;&lt;span style=&quot;background-color: initial;&quot;&gt;2&lt;/span&gt;&lt;/div&gt;" style="rounded=0;whiteSpace=wrap;html=1;" parent="1" vertex="1">
          <mxGeometry x="180" y="-700" width="240" height="80" as="geometry" />
        </mxCell>
        <mxCell id="lVM0PGsEVYaV1nGACYPw-9" style="edgeStyle=orthogonalEdgeStyle;rounded=0;orthogonalLoop=1;jettySize=auto;html=1;entryX=0.617;entryY=0.185;entryDx=0;entryDy=0;entryPerimeter=0;" parent="1" source="lVM0PGsEVYaV1nGACYPw-5" target="lVM0PGsEVYaV1nGACYPw-4" edge="1">
          <mxGeometry relative="1" as="geometry" />
        </mxCell>
        <mxCell id="lVM0PGsEVYaV1nGACYPw-14" value="" style="edgeStyle=orthogonalEdgeStyle;rounded=0;orthogonalLoop=1;jettySize=auto;html=1;" parent="1" source="lVM0PGsEVYaV1nGACYPw-12" target="lVM0PGsEVYaV1nGACYPw-13" edge="1">
          <mxGeometry relative="1" as="geometry" />
        </mxCell>
        <mxCell id="lVM0PGsEVYaV1nGACYPw-12" value="Druk het tweede getal af.&amp;nbsp;&lt;div&gt;Dit is het laatste berekende fibonacci getal gebruiker&lt;/div&gt;" style="shape=parallelogram;perimeter=parallelogramPerimeter;whiteSpace=wrap;html=1;fixedSize=1;" parent="1" vertex="1">
          <mxGeometry x="180" y="-350" width="240" height="90" as="geometry" />
        </mxCell>
        <mxCell id="lVM0PGsEVYaV1nGACYPw-13" value="einde" style="rounded=1;whiteSpace=wrap;html=1;" parent="1" vertex="1">
          <mxGeometry x="180" y="-200" width="240" height="60" as="geometry" />
        </mxCell>
        <mxCell id="u_4BYWfFrZE14Z3gQpRN-2" value="No" style="edgeLabel;html=1;align=center;verticalAlign=middle;resizable=0;points=[];fontStyle=1;fontSize=14;" vertex="1" connectable="0" parent="1">
          <mxGeometry x="430.00000000000045" y="-780.0044444444445" as="geometry">
            <mxPoint x="-164" y="399" as="offset" />
          </mxGeometry>
        </mxCell>
        <mxCell id="u_4BYWfFrZE14Z3gQpRN-3" value="Yes" style="edgeLabel;html=1;align=center;verticalAlign=middle;resizable=0;points=[];fontStyle=1;fontSize=14;" vertex="1" connectable="0" parent="1">
          <mxGeometry x="641.0000000000005" y="-820.0044444444445" as="geometry">
            <mxPoint x="-164" y="399" as="offset" />
          </mxGeometry>
        </mxCell>
      </root>
    </mxGraphModel>
  </diagram>
</mxfile>
